<svg width="512" height="512" viewBox="0 0 512 512" fill="none" xmlns="http://www.w3.org/2000/svg">
<path d="M433.43 93.3501C400.796 78.3767 365.802 67.3449 329.214 61.0265C328.547 60.9046 327.882 61.2093 327.539 61.8188C323.038 69.8234 318.053 80.266 314.562 88.4739C275.209 82.5823 236.057 82.5823 197.511 88.4739C194.019 80.0836 188.853 69.8234 184.332 61.8188C183.989 61.2296 183.323 60.9249 182.657 61.0265C146.089 67.3247 111.095 78.3565 78.4413 93.3501C78.1586 93.472 77.9163 93.6754 77.7555 93.9393C11.379 193.104 -6.80427 289.832 2.11584 385.36C2.1562 385.828 2.41856 386.275 2.78182 386.559C46.5751 418.72 88.9964 438.244 130.63 451.186C131.296 451.389 132.002 451.145 132.426 450.596C142.275 437.147 151.054 422.966 158.581 408.053C159.025 407.18 158.601 406.144 157.693 405.799C143.768 400.516 130.509 394.076 117.754 386.762C116.745 386.173 116.665 384.73 117.593 384.039C120.277 382.028 122.961 379.935 125.524 377.822C125.988 377.437 126.634 377.355 127.179 377.599C210.971 415.855 301.686 415.855 384.49 377.599C385.035 377.335 385.681 377.416 386.165 377.802C388.728 379.915 391.412 382.028 394.117 384.039C395.045 384.73 394.984 386.173 393.975 386.762C381.221 394.218 367.961 400.516 354.016 405.778C353.108 406.124 352.705 407.18 353.149 408.053C360.837 422.945 369.616 437.126 379.283 450.576C379.687 451.145 380.413 451.389 381.079 451.186C422.915 438.244 465.336 418.72 509.129 386.559C509.513 386.275 509.755 385.848 509.795 385.381C520.471 274.939 491.914 179.005 434.095 93.9595C433.954 93.6754 433.712 93.472 433.43 93.3501Z" fill="#5865F2"/>
<path d="M125.079 275.59C125.079 304.033 145.866 327.194 171.093 327.194C196.722 327.194 217.106 304.033 217.106 275.59C217.51 247.35 196.924 223.986 171.093 223.986C145.462 223.986 125.079 247.146 125.079 275.59Z" fill="white"/>
<path d="M295.207 275.59C295.207 304.033 315.994 327.194 341.22 327.194C367.052 327.194 387.234 304.033 387.234 275.59C387.637 247.35 367.052 223.986 341.22 223.986C315.59 223.986 295.207 247.146 295.207 275.59Z" fill="white"/>
</svg>
