<svg width="30" height="30" viewBox="0 0 30 30" fill="none" xmlns="http://www.w3.org/2000/svg">
<path fill-rule="evenodd" clip-rule="evenodd" d="M7.2973 14.9999C7.2973 10.7458 10.7459 7.29722 15 7.29722C19.2541 7.29722 22.7027 10.7458 22.7027 14.9999C22.7027 19.2539 19.2541 22.7024 15 22.7024C10.7459 22.7024 7.2973 19.2539 7.2973 14.9999ZM15 19.9998C12.2386 19.9998 10 17.7612 10 14.9999C10 12.2384 12.2386 9.99989 15 9.99989C17.7614 9.99989 20 12.2384 20 14.9999C20 17.7612 17.7614 19.9998 15 19.9998Z" fill="url(#paint0_linear_869_56)"/>
<path fill-rule="evenodd" clip-rule="evenodd" d="M7.2973 14.9999C7.2973 10.7458 10.7459 7.29722 15 7.29722C19.2541 7.29722 22.7027 10.7458 22.7027 14.9999C22.7027 19.2539 19.2541 22.7024 15 22.7024C10.7459 22.7024 7.2973 19.2539 7.2973 14.9999ZM15 19.9998C12.2386 19.9998 10 17.7612 10 14.9999C10 12.2384 12.2386 9.99989 15 9.99989C17.7614 9.99989 20 12.2384 20 14.9999C20 17.7612 17.7614 19.9998 15 19.9998Z" fill="url(#paint1_radial_869_56)"/>
<path d="M23.007 8.79285C24.0011 8.79285 24.8071 7.98701 24.8071 6.9929C24.8071 5.99879 24.0011 5.19289 23.007 5.19289C22.013 5.19289 21.207 5.99879 21.207 6.9929C21.207 7.98701 22.013 8.79285 23.007 8.79285Z" fill="url(#paint2_linear_869_56)"/>
<path d="M23.007 8.79285C24.0011 8.79285 24.8071 7.98701 24.8071 6.9929C24.8071 5.99879 24.0011 5.19289 23.007 5.19289C22.013 5.19289 21.207 5.99879 21.207 6.9929C21.207 7.98701 22.013 8.79285 23.007 8.79285Z" fill="url(#paint3_radial_869_56)"/>
<path fill-rule="evenodd" clip-rule="evenodd" d="M15 0C10.9262 0 10.4154 0.0172672 8.81552 0.0902656C7.21894 0.163085 6.12854 0.416674 5.17443 0.787502C4.18805 1.17077 3.35153 1.68367 2.51758 2.51755C1.68369 3.3515 1.17079 4.188 0.78751 5.17437C0.416679 6.12847 0.163087 7.21886 0.0902666 8.81542C0.0172674 10.4153 0 10.9261 0 14.9999C0 19.0735 0.0172674 19.5844 0.0902666 21.1842C0.163087 22.7808 0.416679 23.8712 0.78751 24.8253C1.17079 25.8117 1.68369 26.6482 2.51758 27.4821C3.35153 28.316 4.18805 28.8289 5.17443 29.2122C6.12854 29.583 7.21894 29.8366 8.81552 29.9094C10.4154 29.9824 10.9262 29.9997 15 29.9997C19.0738 29.9997 19.5846 29.9824 21.1845 29.9094C22.7811 29.8366 23.8715 29.583 24.8256 29.2122C25.812 28.8289 26.6485 28.316 27.4824 27.4821C28.3163 26.6482 28.8292 25.8117 29.2126 24.8253C29.5833 23.8712 29.8369 22.7808 29.9097 21.1842C29.9827 19.5844 30 19.0735 30 14.9999C30 10.9261 29.9827 10.4153 29.9097 8.81542C29.8369 7.21886 29.5833 6.12847 29.2126 5.17437C28.8292 4.188 28.3163 3.3515 27.4824 2.51755C26.6485 1.68367 25.812 1.17077 24.8256 0.787502C23.8715 0.416674 22.7811 0.163085 21.1845 0.0902656C19.5846 0.0172672 19.0738 0 15 0ZM15 2.70267C19.0052 2.70267 19.4796 2.71797 21.0613 2.79013C22.5238 2.85682 23.318 3.10118 23.8466 3.3066C24.5467 3.57871 25.0464 3.90375 25.5713 4.42867C26.0962 4.95353 26.4213 5.45321 26.6934 6.15336C26.8988 6.68191 27.1432 7.47614 27.2098 8.93861C27.282 10.5203 27.2973 10.9947 27.2973 14.9999C27.2973 19.0049 27.282 19.4794 27.2098 21.0611C27.1432 22.5235 26.8988 23.3178 26.6934 23.8463C26.4213 24.5465 26.0962 25.0461 25.5713 25.571C25.0464 26.0959 24.5467 26.421 23.8466 26.6931C23.318 26.8985 22.5238 27.1428 21.0613 27.2095C19.4798 27.2817 19.0055 27.297 15 27.297C10.9945 27.297 10.5202 27.2817 8.93872 27.2095C7.47623 27.1428 6.68199 26.8985 6.15343 26.6931C5.45327 26.421 4.95359 26.0959 4.42872 25.571C3.90385 25.0461 3.57875 24.5465 3.30664 23.8463C3.10122 23.3178 2.85686 22.5235 2.79017 21.0611C2.718 19.4794 2.7027 19.0049 2.7027 14.9999C2.7027 10.9947 2.718 10.5203 2.79017 8.93861C2.85686 7.47614 3.10122 6.68191 3.30664 6.15336C3.57875 5.45321 3.90379 4.95353 4.42872 4.42867C4.95359 3.90375 5.45327 3.57871 6.15343 3.3066C6.68199 3.10118 7.47623 2.85682 8.93872 2.79013C10.5204 2.71797 10.9948 2.70267 15 2.70267Z" fill="url(#paint4_linear_869_56)"/>
<path fill-rule="evenodd" clip-rule="evenodd" d="M15 0C10.9262 0 10.4154 0.0172672 8.81552 0.0902656C7.21894 0.163085 6.12854 0.416674 5.17443 0.787502C4.18805 1.17077 3.35153 1.68367 2.51758 2.51755C1.68369 3.3515 1.17079 4.188 0.78751 5.17437C0.416679 6.12847 0.163087 7.21886 0.0902666 8.81542C0.0172674 10.4153 0 10.9261 0 14.9999C0 19.0735 0.0172674 19.5844 0.0902666 21.1842C0.163087 22.7808 0.416679 23.8712 0.78751 24.8253C1.17079 25.8117 1.68369 26.6482 2.51758 27.4821C3.35153 28.316 4.18805 28.8289 5.17443 29.2122C6.12854 29.583 7.21894 29.8366 8.81552 29.9094C10.4154 29.9824 10.9262 29.9997 15 29.9997C19.0738 29.9997 19.5846 29.9824 21.1845 29.9094C22.7811 29.8366 23.8715 29.583 24.8256 29.2122C25.812 28.8289 26.6485 28.316 27.4824 27.4821C28.3163 26.6482 28.8292 25.8117 29.2126 24.8253C29.5833 23.8712 29.8369 22.7808 29.9097 21.1842C29.9827 19.5844 30 19.0735 30 14.9999C30 10.9261 29.9827 10.4153 29.9097 8.81542C29.8369 7.21886 29.5833 6.12847 29.2126 5.17437C28.8292 4.188 28.3163 3.3515 27.4824 2.51755C26.6485 1.68367 25.812 1.17077 24.8256 0.787502C23.8715 0.416674 22.7811 0.163085 21.1845 0.0902656C19.5846 0.0172672 19.0738 0 15 0ZM15 2.70267C19.0052 2.70267 19.4796 2.71797 21.0613 2.79013C22.5238 2.85682 23.318 3.10118 23.8466 3.3066C24.5467 3.57871 25.0464 3.90375 25.5713 4.42867C26.0962 4.95353 26.4213 5.45321 26.6934 6.15336C26.8988 6.68191 27.1432 7.47614 27.2098 8.93861C27.282 10.5203 27.2973 10.9947 27.2973 14.9999C27.2973 19.0049 27.282 19.4794 27.2098 21.0611C27.1432 22.5235 26.8988 23.3178 26.6934 23.8463C26.4213 24.5465 26.0962 25.0461 25.5713 25.571C25.0464 26.0959 24.5467 26.421 23.8466 26.6931C23.318 26.8985 22.5238 27.1428 21.0613 27.2095C19.4798 27.2817 19.0055 27.297 15 27.297C10.9945 27.297 10.5202 27.2817 8.93872 27.2095C7.47623 27.1428 6.68199 26.8985 6.15343 26.6931C5.45327 26.421 4.95359 26.0959 4.42872 25.571C3.90385 25.0461 3.57875 24.5465 3.30664 23.8463C3.10122 23.3178 2.85686 22.5235 2.79017 21.0611C2.718 19.4794 2.7027 19.0049 2.7027 14.9999C2.7027 10.9947 2.718 10.5203 2.79017 8.93861C2.85686 7.47614 3.10122 6.68191 3.30664 6.15336C3.57875 5.45321 3.90379 4.95353 4.42872 4.42867C4.95359 3.90375 5.45327 3.57871 6.15343 3.3066C6.68199 3.10118 7.47623 2.85682 8.93872 2.79013C10.5204 2.71797 10.9948 2.70267 15 2.70267Z" fill="url(#paint5_radial_869_56)"/>
<defs>
<linearGradient id="paint0_linear_869_56" x1="1.7504" y1="1.57717" x2="11.2089" y2="38.1644" gradientUnits="userSpaceOnUse">
<stop stop-color="#4E60D3"/>
<stop offset="0.142763" stop-color="#913BAF"/>
<stop offset="0.761458" stop-color="#D52D88"/>
<stop offset="1" stop-color="#F26D4F"/>
</linearGradient>
<radialGradient id="paint1_radial_869_56" cx="0" cy="0" r="1" gradientUnits="userSpaceOnUse" gradientTransform="translate(9.0823 29.9997) rotate(32.1598) scale(28.0183 20.1638)">
<stop stop-color="#FED276"/>
<stop offset="0.17024" stop-color="#FDBD61" stop-opacity="0.975006"/>
<stop offset="0.454081" stop-color="#F6804D"/>
<stop offset="1" stop-color="#E83D5C" stop-opacity="0.01"/>
</radialGradient>
<linearGradient id="paint2_linear_869_56" x1="1.7504" y1="1.57717" x2="11.2089" y2="38.1644" gradientUnits="userSpaceOnUse">
<stop stop-color="#4E60D3"/>
<stop offset="0.142763" stop-color="#913BAF"/>
<stop offset="0.761458" stop-color="#D52D88"/>
<stop offset="1" stop-color="#F26D4F"/>
</linearGradient>
<radialGradient id="paint3_radial_869_56" cx="0" cy="0" r="1" gradientUnits="userSpaceOnUse" gradientTransform="translate(9.0823 29.9997) rotate(32.1598) scale(28.0183 20.1638)">
<stop stop-color="#FED276"/>
<stop offset="0.17024" stop-color="#FDBD61" stop-opacity="0.975006"/>
<stop offset="0.454081" stop-color="#F6804D"/>
<stop offset="1" stop-color="#E83D5C" stop-opacity="0.01"/>
</radialGradient>
<linearGradient id="paint4_linear_869_56" x1="1.7504" y1="1.57717" x2="11.2089" y2="38.1644" gradientUnits="userSpaceOnUse">
<stop stop-color="#4E60D3"/>
<stop offset="0.142763" stop-color="#913BAF"/>
<stop offset="0.761458" stop-color="#D52D88"/>
<stop offset="1" stop-color="#F26D4F"/>
</linearGradient>
<radialGradient id="paint5_radial_869_56" cx="0" cy="0" r="1" gradientUnits="userSpaceOnUse" gradientTransform="translate(9.0823 29.9997) rotate(32.1598) scale(28.0183 20.1638)">
<stop stop-color="#FED276"/>
<stop offset="0.17024" stop-color="#FDBD61" stop-opacity="0.975006"/>
<stop offset="0.454081" stop-color="#F6804D"/>
<stop offset="1" stop-color="#E83D5C" stop-opacity="0.01"/>
</radialGradient>
</defs>
</svg>
