<svg width="33" height="27" viewBox="0 0 33 27" fill="none" xmlns="http://www.w3.org/2000/svg">
<path fill-rule="evenodd" clip-rule="evenodd" d="M2.23971 11.6233C10.9853 7.813 16.8171 5.301 19.735 4.08733C28.0664 0.622045 29.7975 0.0200889 30.9259 0.000211933C31.1741 -0.00415979 31.729 0.0573444 32.0884 0.349002C32.3919 0.595272 32.4754 0.927948 32.5154 1.16144C32.5553 1.39493 32.6051 1.92683 32.5655 2.34244C32.114 7.08615 30.1605 18.5979 29.1667 23.9109C28.7461 26.1591 27.9181 26.9129 27.1164 26.9866C25.3743 27.1469 24.0514 25.8353 22.364 24.7292C19.7236 22.9984 18.232 21.921 15.669 20.232C12.7071 18.2801 14.6272 17.2073 16.3152 15.4541C16.7569 14.9953 24.4329 8.01339 24.5815 7.38002C24.6001 7.30081 24.6173 7.00554 24.4419 6.84963C24.2665 6.69371 24.0076 6.74703 23.8207 6.78943C23.5559 6.84954 19.3379 9.63752 11.1666 15.1534C9.96929 15.9755 8.88483 16.3761 7.91319 16.3551C6.84204 16.332 4.78157 15.7495 3.24982 15.2515C1.37106 14.6408 -0.122131 14.318 0.00789281 13.2808C0.0756172 12.7406 0.819554 12.1881 2.23971 11.6233Z" fill="#27A5E4"/>
</svg>
