<svg width="30" height="30" viewBox="0 0 30 30" fill="none" xmlns="http://www.w3.org/2000/svg">
<path fill-rule="evenodd" clip-rule="evenodd" d="M29.373 8.27892C29.028 6.98839 28.0116 5.97172 26.7208 5.62674C24.3813 5 14.9999 5 14.9999 5C14.9999 5 5.61872 5 3.27917 5.62674C1.98839 5.97172 0.971972 6.98839 0.626991 8.27892C0 10.6187 0 15.4998 0 15.4998C0 15.4998 0 20.3812 0.626991 22.7207C0.971972 24.0112 1.98839 25.0282 3.27917 25.3729C5.61872 25.9999 14.9999 25.9999 14.9999 25.9999C14.9999 25.9999 24.3813 25.9999 26.7208 25.3729C28.0116 25.0282 29.028 24.0112 29.373 22.7207C30 20.3812 30 15.4998 30 15.4998C30 15.4998 30 10.6187 29.373 8.27892Z" fill="#FF0000"/>
<path fill-rule="evenodd" clip-rule="evenodd" d="M12 19.9996L19.7938 15.4998L12 10.9995V19.9996Z" fill="white"/>
</svg>
